<?xml version="1.0" encoding="UTF-8"?>
<!DOCTYPE svg PUBLIC "-//W3C//DTD SVG 1.1//EN" "http://www.w3.org/Graphics/SVG/1.1/DTD/svg11.dtd">
<svg xmlns="http://www.w3.org/2000/svg" version="1.1" width="145px" height="142px" style="shape-rendering:geometricPrecision; text-rendering:geometricPrecision; image-rendering:optimizeQuality; fill-rule:evenodd; clip-rule:evenodd" xmlns:xlink="http://www.w3.org/1999/xlink">
<g><path style="opacity:0.949" fill="#de587c" d="M -0.5,35.5 C 4.16667,35.5 8.83333,35.5 13.5,35.5C 13.5,43.1667 13.5,50.8333 13.5,58.5C 17.8333,58.5 22.1667,58.5 26.5,58.5C 26.5,50.8333 26.5,43.1667 26.5,35.5C 31.1667,35.5 35.8333,35.5 40.5,35.5C 40.5,54.8333 40.5,74.1667 40.5,93.5C 35.8333,93.5 31.1667,93.5 26.5,93.5C 26.5,85.5 26.5,77.5 26.5,69.5C 22.1667,69.5 17.8333,69.5 13.5,69.5C 13.5,77.5 13.5,85.5 13.5,93.5C 8.83333,93.5 4.16667,93.5 -0.5,93.5C -0.5,74.1667 -0.5,54.8333 -0.5,35.5 Z"/></g>
<g><path style="opacity:0.947" fill="#de587c" d="M 51.5,35.5 C 56.1667,35.5 60.8333,35.5 65.5,35.5C 65.3334,49.504 65.5001,63.504 66,77.5C 69.2621,85.3165 73.9288,86.3165 80,80.5C 81.3549,65.5363 81.8549,50.5363 81.5,35.5C 85.1667,35.5 88.8333,35.5 92.5,35.5C 92.941,52.2233 92.441,68.89 91,85.5C 86.5236,92.2367 80.1902,95.2367 72,94.5C 59.4638,95.583 52.7972,89.9164 52,77.5C 51.5001,63.504 51.3334,49.504 51.5,35.5 Z"/></g>
<g><path style="opacity:0.938" fill="#de587c" d="M 144.5,71.5 C 144.5,75.1667 144.5,78.8333 144.5,82.5C 142.682,87.8156 139.016,91.3156 133.5,93C 123.172,93.4998 112.839,93.6665 102.5,93.5C 102.5,74.1667 102.5,54.8333 102.5,35.5C 113.91,35.0666 125.244,35.5666 136.5,37C 143.875,43.8801 145.042,51.7135 140,60.5C 138.581,61.4601 137.081,62.2935 135.5,63C 139.685,64.6878 142.685,67.5212 144.5,71.5 Z M 116.5,45.5 C 119.941,45.3011 123.274,45.8011 126.5,47C 129.167,50.3333 129.167,53.6667 126.5,57C 123.274,58.1989 119.941,58.6989 116.5,58.5C 116.5,54.1667 116.5,49.8333 116.5,45.5 Z M 116.5,68.5 C 121.715,67.7024 126.215,69.0358 130,72.5C 131.183,76.2739 130.349,79.4406 127.5,82C 123.94,83.2367 120.273,83.7367 116.5,83.5C 116.5,78.5 116.5,73.5 116.5,68.5 Z"/></g>
</svg>
